<?xml version="1.0" encoding="utf-8"?>
<!DOCTYPE svg PUBLIC "-//W3C//DTD SVG 1.1//EN" "http://www.w3.org/Graphics/SVG/1.1/DTD/svg11.dtd">
<svg xmlns="http://www.w3.org/2000/svg" xmlns:xlink="http://www.w3.org/1999/xlink" version="1.1" baseProfile="full" width="24" height="24" viewBox="0 0 24.00 24.00" enable-background="new 0 0 24.00 24.00" xml:space="preserve">
	<path fill="#000000" fill-opacity="1" stroke-linejoin="round" d="M 24,17L 24,19L 21,19L 21,17C 21,15.4536 20.3038,14.0562 19.183,13.057C 24,13.5448 24,17 24,17 Z M 18,5.00001C 19.6568,5.00001 21,6.34315 21,8.00001C 21,9.65686 19.6568,11 18,11C 17.6864,11 17.3841,10.9519 17.0999,10.8626C 17.6672,10.0517 18,9.06473 18,8.00001C 18,6.93528 17.6672,5.94829 17.0999,5.13737C 17.3841,5.04812 17.6864,5.00001 18,5.00001 Z M 13,5.00001C 14.6568,5.00001 16,6.34315 16,8C 16,9.65686 14.6568,11 13,11C 11.3431,11 10,9.65686 10,8C 10,6.34315 11.3431,5.00001 13,5.00001 Z M 19,17L 19,19L 7,19L 7,17C 7,14.7909 9.68629,13 13,13C 16.3137,13 19,14.7909 19,17 Z M 0.464465,13.1213L 2.58579,11L 0.464466,8.87868L 1.87868,7.46447L 4,9.58579L 6.12132,7.46447L 7.53553,8.87868L 5.41421,11L 7.53553,13.1213L 6.12132,14.5355L 4,12.4142L 1.87868,14.5355L 0.464465,13.1213 Z "/>
</svg>
