<?xml version="1.0" encoding="utf-8"?>
<!DOCTYPE svg PUBLIC "-//W3C//DTD SVG 1.1//EN" "http://www.w3.org/Graphics/SVG/1.1/DTD/svg11.dtd">
<svg xmlns="http://www.w3.org/2000/svg" xmlns:xlink="http://www.w3.org/1999/xlink" version="1.1" baseProfile="full" width="24" height="24" viewBox="0 0 24.00 24.00" enable-background="new 0 0 24.00 24.00" xml:space="preserve">
	<path fill="#000000" fill-opacity="1" stroke-width="0.2" stroke-linejoin="round" d="M 18.75,22.16L 16,19.16L 17.1602,18L 18.75,19.59L 22.3398,16L 23.5,17.41L 18.75,22.16 Z M 12.9994,12.998L 12.9994,6.99805L 10.9994,6.99805L 10.9994,12.998L 12.9994,12.998 Z M 12.9994,16.998L 12.9994,14.998L 10.9994,14.998L 10.9994,16.998L 12.9994,16.998 Z M 11.9994,1.99805C 17.5224,1.99805 21.9994,6.47502 21.9994,11.9981L 21.9139,13.3117C 21.3128,13.1096 20.6692,13 20,13C 16.6863,13 14,15.6863 14,19C 14,19.9521 14.2218,20.8524 14.6165,21.6521C 13.7823,21.8777 12.9049,21.998 11.9994,21.998C 6.47639,21.998 1.99939,17.5211 1.99939,11.9981C 1.99939,6.47502 6.47639,1.99805 11.9994,1.99805 Z "/>
</svg>
