<?xml version="1.0" encoding="utf-8"?>
<!DOCTYPE svg PUBLIC "-//W3C//DTD SVG 1.1//EN" "http://www.w3.org/Graphics/SVG/1.1/DTD/svg11.dtd">
<svg xmlns="http://www.w3.org/2000/svg" xmlns:xlink="http://www.w3.org/1999/xlink" version="1.1" baseProfile="full" width="24" height="24" viewBox="0 0 24.00 24.00" enable-background="new 0 0 24.00 24.00" xml:space="preserve">
	<path fill="#000000" fill-opacity="1" stroke-width="0.2" stroke-linejoin="round" d="M 20,21L 4,21L 4,10L 6,10L 6,19L 18,19L 18,10L 20,10L 20,21 Z M 3,3.00001L 21,3.00001L 21,9L 3,9L 3,3.00001 Z M 9.5,11L 14.5,11C 14.7761,11 15,11.2239 15,11.5L 15,13L 9,13L 9,11.5C 9,11.2239 9.22386,11 9.5,11 Z M 5,5L 5,7L 19,7L 19,5L 5,5 Z "/>
</svg>
