<?xml version="1.0" encoding="utf-8"?>
<!DOCTYPE svg PUBLIC "-//W3C//DTD SVG 1.1//EN" "http://www.w3.org/Graphics/SVG/1.1/DTD/svg11.dtd">
<svg xmlns="http://www.w3.org/2000/svg" xmlns:xlink="http://www.w3.org/1999/xlink" version="1.1" baseProfile="full" width="24" height="24" viewBox="0 0 24.00 24.00" enable-background="new 0 0 24.00 24.00" xml:space="preserve">
	<path fill="#000000" fill-opacity="1" stroke-width="0.2" stroke-linejoin="miter" d="M 17.9975,13.9987L 20,13.9987L 20,17.0025L 22.9975,17.0025L 22.9975,18.9988L 20,18.9988L 20,22.0025L 17.9975,22.0025L 17.9975,18.9988L 15,18.9988L 15,17.0025L 17.9975,17.0025L 17.9975,13.9987 Z M 3,3L 21,3L 21,5C 19.8954,5 19,5.8954 19,7L 19,12C 18.2987,12 17.6256,12.1203 17,12.3414L 17,5.00001L 7,5.00001L 7,7.00001L 12,7.00001L 12,8.00001L 7,8.00001L 7,9L 10,9L 10,10L 7,10L 7,11L 10,11L 10,12L 7,12L 7,13L 12,13L 12,14L 7,14L 7,15L 10,15L 10,16L 7,16L 7,19L 13.083,19C 13.2034,19.7179 13.4513,20.3926 13.8027,21L 7,21C 5.89543,21 5,20.1046 5,19L 5,7C 5,5.8954 4.10457,5 3,5L 3,3 Z "/>
</svg>
