<?xml version="1.0" encoding="utf-8"?>
<!DOCTYPE svg PUBLIC "-//W3C//DTD SVG 1.1//EN" "http://www.w3.org/Graphics/SVG/1.1/DTD/svg11.dtd">
<svg xmlns="http://www.w3.org/2000/svg" xmlns:xlink="http://www.w3.org/1999/xlink" version="1.1" baseProfile="full" width="24" height="24" viewBox="0 0 24.00 24.00" enable-background="new 0 0 24.00 24.00" xml:space="preserve">
	<path fill="#000000" fill-opacity="1" stroke-width="0.2" stroke-linejoin="miter" d="M 1.27157e-006,3L 18,3L 18,5C 16.8954,5 16,5.8954 16,7L 16,19C 16,20.1046 15.1046,21 14,21L 4,21C 2.89543,21 2,20.1046 2,19L 2,7C 2,5.8954 1.10457,5 1.27157e-006,5L 1.27157e-006,3 Z M 4,5.00001L 4,7.00001L 8.99999,7.00001L 8.99999,8.00001L 4,8.00001L 4,9L 7,9L 7,10L 4,10L 4,11L 7,11L 7,12L 4,12L 4,13L 9,13L 9,14L 4,14L 4,15L 7,15L 7,16L 4,16L 4,19L 14,19L 14,5.00001L 4,5.00001 Z M 21.5,15.5L 21.5,17L 20,17L 20,15.5L 21.5,15.5 Z M 19.5,10.5L 18,10.5L 18,10C 18,8.3431 19.3431,7 21,7C 22.6569,7 24,8.3431 24,10C 24,10.971 23.5137,11.875 22.706,12.408L 22.4131,12.601C 21.8429,12.9773 21.4999,13.6149 21.5,14.298L 21.5,14.5L 20,14.5L 20,14.298C 20,13.111 20.596,12.003 21.5869,11.349L 21.88,11.156C 22.2666,10.9 22.5,10.467 22.5,10.003C 22.5008,9.1746 21.8299,8.5023 21.0015,8.5015C 20.1731,8.5007 19.5008,9.1716 19.5,10L 19.5,10.5 Z "/>
</svg>
