<?xml version="1.0" encoding="utf-8"?>
<!DOCTYPE svg PUBLIC "-//W3C//DTD SVG 1.1//EN" "http://www.w3.org/Graphics/SVG/1.1/DTD/svg11.dtd">
<svg xmlns="http://www.w3.org/2000/svg" xmlns:xlink="http://www.w3.org/1999/xlink" version="1.1" baseProfile="full" width="24" height="24" viewBox="0 0 24.00 24.00" enable-background="new 0 0 24.00 24.00" xml:space="preserve">
	<path fill="#000000" fill-opacity="1" stroke-width="0.2" stroke-linejoin="round" d="M 3,3L 21,3L 21,5C 19.9,5 19,5.9 19,7L 19,19C 19,20.1 18.1,21 17,21L 7,21C 5.9,21 5,20.1 5,19L 5,7C 5,5.9 4.1,5 3,5L 3,3 Z M 7,9L 7,10L 10,10L 10,9L 7,9 Z M 7,11L 7,12L 10,12L 10,11L 7,11 Z M 10,16L 10,15L 7,15L 7,16L 10,16 Z M 12,14L 12,13L 7,13L 7,14L 12,14 Z M 12,8L 12,7L 7,7L 7,8L 12,8 Z M 21,13L 21,7.99999L 23,7.99999L 23,13L 21,13 Z M 21,17L 21,15L 23,15L 23,17L 21,17 Z "/>
</svg>
