<?xml version="1.0" encoding="utf-8"?>
<!DOCTYPE svg PUBLIC "-//W3C//DTD SVG 1.1//EN" "http://www.w3.org/Graphics/SVG/1.1/DTD/svg11.dtd">
<svg xmlns="http://www.w3.org/2000/svg" xmlns:xlink="http://www.w3.org/1999/xlink" version="1.1" baseProfile="full" width="24" height="24" viewBox="0 0 24.00 24.00" enable-background="new 0 0 24.00 24.00" xml:space="preserve">
	<path fill="#000000" fill-opacity="1" stroke-width="0.2" stroke-linejoin="miter" d="M 17.75,21.16L 15,18.16L 16.1602,17L 17.75,18.59L 21.3398,15L 22.5,16.41L 17.75,21.16 Z M 3,20L 3,19L 5,17L 5,11C 4.99921,7.9037 7.03273,5.1747 10,4.29L 10,4C 10,2.8954 10.8954,2 12,2C 13.1046,2 14,2.8954 14,4L 14,4.29C 16.9673,5.1747 19.0008,7.9037 19,11L 19,12.083L 18,12C 14.6863,12 12,14.6863 12,18C 12,18.7013 12.1203,19.3744 12.3414,20L 3,20 Z M 12,23C 10.8954,23 10,22.1046 10,21L 12.8027,21C 13.0401,21.4105 13.3248,21.7902 13.6492,22.1317C 13.2887,22.6561 12.6845,23 12,23 Z "/>
</svg>
