<?xml version="1.0" encoding="utf-8"?>
<!DOCTYPE svg PUBLIC "-//W3C//DTD SVG 1.1//EN" "http://www.w3.org/Graphics/SVG/1.1/DTD/svg11.dtd">
<svg xmlns="http://www.w3.org/2000/svg" xmlns:xlink="http://www.w3.org/1999/xlink" version="1.1" baseProfile="full" width="24" height="24" viewBox="0 0 24.00 24.00" enable-background="new 0 0 24.00 24.00" xml:space="preserve">
	<path fill="#000000" fill-opacity="1" stroke-linejoin="round" d="M 11.7428,13.3558L 14.1399,7.70865L 13.0627,5.50001L 10.5,5.50001L 10.5,4L 14,4.00001L 14.7316,5.50001L 21.75,5.50001L 20.75,9L 16.4387,9L 17.1072,10.3707C 17.691,10.1317 18.3301,10 19,10C 21.7614,10 24,12.2386 24,15C 24,17.7614 21.7614,20 19,20C 16.2386,20 14,17.7614 14,15C 14,13.4484 14.7067,12.0619 15.8159,11.1448L 15.0112,9.49502L 12.25,16L 9.89998,16C 9.43671,18.2822 7.41896,20 5,20C 2.23858,20 -3.17891e-007,17.7614 -3.17891e-007,15C -3.17891e-007,12.2386 2.23858,10 5,10C 7.59267,10 9.72444,11.9733 9.97531,14.5L 10.5816,14.5L 8.29932,9L 7.5,9C 7.08578,9 6.75,8.66422 6.75,8.25C 6.75,7.83579 7.08578,7.5 7.5,7.5L 10.25,7.50001C 10.6642,7.50001 11,7.83579 11,8.25C 11,8.66422 10.6642,9 10.25,9L 9.96987,9L 11.7428,13.3558 Z M 5,11.5C 3.067,11.5 1.5,13.067 1.5,15C 1.5,16.933 3.067,18.5 5,18.5C 6.58551,18.5 7.92478,17.4457 8.35506,16L 4,16L 4,14.5L 8.46455,14.5C 8.22193,12.8039 6.76323,11.5 5,11.5 Z M 19,11.5C 18.566,11.5 18.1504,11.579 17.7669,11.7234L 19.6988,15.6843L 18.3506,16.3419L 16.501,12.5495C 15.8818,13.1809 15.5,14.0459 15.5,15C 15.5,16.933 17.067,18.5 19,18.5C 20.933,18.5 22.5,16.933 22.5,15C 22.5,13.067 20.933,11.5 19,11.5 Z "/>
</svg>
