<?xml version="1.0" encoding="utf-8"?>
<!DOCTYPE svg PUBLIC "-//W3C//DTD SVG 1.1//EN" "http://www.w3.org/Graphics/SVG/1.1/DTD/svg11.dtd">
<svg xmlns="http://www.w3.org/2000/svg" xmlns:xlink="http://www.w3.org/1999/xlink" version="1.1" baseProfile="full" width="24" height="24" viewBox="0 0 24.00 24.00" enable-background="new 0 0 24.00 24.00" xml:space="preserve">
	<path fill="#000000" fill-opacity="1" stroke-width="0.2" stroke-linejoin="miter" d="M 23,18.3027L 23,21.8027C 23,22.4013 22.4,23 21.6973,23L 16.1973,23C 15.5987,23 15,22.4013 15,21.6973L 15,18.1973C 15,17.5987 15.5987,17 16.1973,17L 16.1973,15.5C 16.1973,14.0987 17.5987,13 19,13C 20.4,13 21.8013,14.0987 21.8013,15.5L 21.8013,17C 22.4,17 23,17.5987 23,18.3027 Z M 20.5,15.5C 20.5,14.6973 19.8013,14.1973 19,14.1973C 18.1973,14.1973 17.5,14.6973 17.5,15.5L 17.5,17L 20.5,17L 20.5,15.5 Z M 20,4C 21.1,4 22,4.9 22,6L 22,11.9996C 21.4186,11.5629 20.7389,11.25 20,11.1L 20,6.00001L 15.95,6.00001L 14.12,4.00001L 9.87999,4.00001L 8.05,6.00001L 4,6.00001L 4,18L 13,18L 13,20L 4,20C 2.9,20 2,19.1 2,18L 2,6C 2,4.9 2.9,4 4,4L 7.17,4L 9,2.00001L 15,2.00001L 16.8301,4L 20,4 Z M 12,7.00001C 14.5673,7.00001 16.6847,8.93821 16.9678,11.4302C 15.2885,12.1781 14.0976,13.8246 14.0057,15.7588C 13.6714,16.0565 13.4041,16.4279 13.2293,16.8475C 12.836,16.9471 12.4241,17 12,17C 9.23999,17 6.99999,14.76 6.99999,12C 6.99999,9.24001 9.23999,7.00001 12,7.00001 Z M 12,15C 13.65,15 15,13.65 15,12C 15,10.35 13.65,9.00001 12,9.00001C 10.35,9.00001 9,10.35 9,12C 9,13.65 10.35,15 12,15 Z "/>
</svg>
