<?xml version="1.0" encoding="utf-8"?>
<!DOCTYPE svg PUBLIC "-//W3C//DTD SVG 1.1//EN" "http://www.w3.org/Graphics/SVG/1.1/DTD/svg11.dtd">
<svg xmlns="http://www.w3.org/2000/svg" xmlns:xlink="http://www.w3.org/1999/xlink" version="1.1" baseProfile="full" width="24" height="24" viewBox="0 0 24.00 24.00" enable-background="new 0 0 24.00 24.00" xml:space="preserve">
	<path fill="#000000" fill-opacity="1" stroke-width="0.2" stroke-linejoin="miter" d="M 4,4.00002L 7,4L 9,2.00001L 15,2.00001L 17,4L 20,4.00002C 21.1045,4.00002 22,4.89545 22,6.00002L 22,11.9996C 21.1643,11.3719 20.1256,11 19,11C 18.2083,11 17.4596,11.184 16.7943,11.5116C 16.181,9.22282 14.2667,7.00001 12,7.00001C 9.23857,7.00001 7,9.23858 7,12C 7,14.7614 9.23857,17 12,17C 12.4242,17 12.836,16.9472 13.2292,16.8478C 13.0815,17.2025 13,17.5917 13,18L 13,20L 4,20C 2.89543,20 2,19.1046 2,18L 2,6.00002C 2,4.89545 2.89543,4.00002 4,4.00002 Z M 12,9.00001C 13.6568,9.00001 15,10.3432 15,12C 15,13.6569 13.6568,15 12,15C 10.3431,15 8.99999,13.6569 8.99999,12C 8.99999,10.3432 10.3431,9.00001 12,9.00001 Z M 23,18.3027L 23,21.8027C 23,22.4013 22.4,23 21.6973,23L 16.1973,23C 15.5987,23 15,22.4013 15,21.6973L 15,18.1973C 15,17.5987 15.5987,17 16.1973,17L 16.1973,15.5C 16.1973,14.0987 17.5987,13 19,13C 20.4,13 21.8013,14.0987 21.8013,15.5L 21.8013,17C 22.4,17 23,17.5987 23,18.3027 Z M 20.5,15.5C 20.5,14.6973 19.8013,14.1973 19,14.1973C 18.1973,14.1973 17.5,14.6973 17.5,15.5L 17.5,17L 20.5,17L 20.5,15.5 Z "/>
</svg>
