<?xml version="1.0" encoding="utf-8"?>
<!DOCTYPE svg PUBLIC "-//W3C//DTD SVG 1.1//EN" "http://www.w3.org/Graphics/SVG/1.1/DTD/svg11.dtd">
<svg xmlns="http://www.w3.org/2000/svg" xmlns:xlink="http://www.w3.org/1999/xlink" version="1.1" baseProfile="full" width="24" height="24" viewBox="0 0 24.00 24.00" enable-background="new 0 0 24.00 24.00" xml:space="preserve">
	<path fill="#000000" fill-opacity="1" stroke-width="0.2" stroke-linejoin="round" d="M 22,17C 22.5,17 23,17.5 23,18L 23,22C 23,22.5 22.5,23 22,23L 17,23C 16.5,23 16,22.5 16,22L 16,18C 16,17.5 16.5,17 17,17L 17,15.5C 17,14.1 18.1,13 19.5,13C 20.9,13 22,14.1 22,15.5L 22,17 Z M 21,17L 21,15.5C 21,14.7 20.3,14 19.5,14C 18.7,14 18,14.7 18,15.5L 18,17L 21,17 Z M 17.5,11L 17.5,10.5C 17.5,7.46198 15.037,4.99998 12,4.99998C 9.48301,4.99998 7.36601,6.69297 6.71201,8.99998L 6.00001,8.99998C 3.79101,8.99998 2.00001,10.791 2.00001,13C 2.00001,15.209 3.79101,17 6.00001,17L 14.1707,17C 14.0602,17.3128 14,17.6494 14,18L 14,19L 6.00001,19C 2.686,19 1.01725e-005,16.314 1.01725e-005,13C 1.01725e-005,9.90497 2.34301,7.35997 5.351,7.03599C 6.60301,4.63898 9.10801,2.99998 12,2.99998C 15.641,2.99998 18.674,5.59499 19.355,9.03599C 21.947,9.22101 24,11.36 24,14L 23.9411,14.77C 23.5923,12.6319 21.7367,11 19.5,11L 17.5,11 Z "/>
</svg>
