<?xml version="1.0" encoding="utf-8"?>
<!DOCTYPE svg PUBLIC "-//W3C//DTD SVG 1.1//EN" "http://www.w3.org/Graphics/SVG/1.1/DTD/svg11.dtd">
<svg xmlns="http://www.w3.org/2000/svg" xmlns:xlink="http://www.w3.org/1999/xlink" version="1.1" baseProfile="full" width="24" height="24" viewBox="0 0 24.00 24.00" enable-background="new 0 0 24.00 24.00" xml:space="preserve">
	<path fill="#000000" fill-opacity="1" stroke-width="0.2" stroke-linejoin="round" d="M 22,17C 22.5,17 23,17.5 23,18L 23,22C 23,22.5 22.5,23 22,23L 17,23C 16.5,23 16,22.5 16,22L 16,18C 16,17.5 16.5,17 17,17L 17,15.5C 17,14.1 18.1,13 19.5,13C 20.9,13 22,14.1 22,15.5L 22,17 Z M 21,17L 21,15.5C 21,14.7 20.3,14 19.5,14C 18.7,14 18,14.7 18,15.5L 18,17L 21,17 Z M 19.3547,9.03388C 21.9467,9.21885 23.9997,11.3579 23.9997,13.9979L 23.9408,14.7679C 23.5911,12.6308 21.736,11 19.5,11C 17.0147,11 15,13.0147 15,15.5L 15.0072,15.7574C 14.3893,16.3069 14,17.108 14,18L 14,18.9979L 5.99968,18.9979C 2.68568,18.9979 -0.000320435,16.3119 -0.000320435,12.9979C -0.000320435,9.90387 2.34268,7.35785 5.35027,7.03485C 6.60268,4.63686 9.10768,2.99787 11.9997,2.99787C 15.6407,2.99787 18.6735,5.59288 19.3547,9.03388 Z "/>
</svg>
