<?xml version="1.0" encoding="utf-8"?>
<!DOCTYPE svg PUBLIC "-//W3C//DTD SVG 1.1//EN" "http://www.w3.org/Graphics/SVG/1.1/DTD/svg11.dtd">
<svg xmlns="http://www.w3.org/2000/svg" xmlns:xlink="http://www.w3.org/1999/xlink" version="1.1" baseProfile="full" width="24" height="24" viewBox="0 0 24.00 24.00" enable-background="new 0 0 24.00 24.00" xml:space="preserve">
	<path fill="#000000" fill-opacity="1" stroke-width="0.2" stroke-linejoin="round" d="M 4,15C 2.89543,15 2,14.1046 2,13L 2,5C 2,3.89543 2.89543,3 4,3L 12,3C 13.1046,3 14,3.89543 14,5L 14,13C 14,14.1046 13.1046,15 12,15L 4,15 Z M 4,5.00001L 4,13L 12,13L 12,5.00001L 10,5.00001L 10,10L 8,8L 6,10L 6,5.00001L 4,5.00001 Z M 16,9L 19,9L 19,7L 22,10L 19,13L 19,11L 16,11L 16,9 Z M 4,16L 20,16C 21.6569,16 23,17.3431 23,19C 23,20.6569 21.6569,22 20,22L 4,22C 2.34314,22 0.999999,20.6569 0.999999,19C 0.999999,17.3431 2.34314,16 4,16 Z M 4,18C 3.44771,18 3,18.4477 3,19C 3,19.5523 3.44771,20 4,20C 4.55228,20 5,19.5523 5,19C 5,18.4477 4.55228,18 4,18 Z M 9,18C 8.44771,18 8,18.4477 8,19C 8,19.5523 8.44771,20 9,20C 9.55228,20 10,19.5523 10,19C 10,18.4477 9.55228,18 9,18 Z M 20,18C 19.4477,18 19,18.4477 19,19C 19,19.5523 19.4477,20 20,20C 20.5523,20 21,19.5523 21,19C 21,18.4477 20.5523,18 20,18 Z M 15,18C 14.4477,18 14,18.4477 14,19C 14,19.5523 14.4477,20 15,20C 15.5523,20 16,19.5523 16,19C 16,18.4477 15.5523,18 15,18 Z "/>
</svg>
