<?xml version="1.0" encoding="utf-8"?>
<!DOCTYPE svg PUBLIC "-//W3C//DTD SVG 1.1//EN" "http://www.w3.org/Graphics/SVG/1.1/DTD/svg11.dtd">
<svg xmlns="http://www.w3.org/2000/svg" xmlns:xlink="http://www.w3.org/1999/xlink" version="1.1" baseProfile="full" width="24" height="24" viewBox="0 0 24.00 24.00" enable-background="new 0 0 24.00 24.00" xml:space="preserve">
	<path fill="#000000" fill-opacity="1" stroke-linejoin="round" d="M 3,6L 21,6C 21.5523,6 22,6.44772 22,7C 22,7.55229 21.5523,8 21,8L 21,19L 19,19L 19,17L 15,17L 15,19L 13,19L 13,8L 5,8L 5,19L 3,19L 3,8C 2.44772,8 2,7.55229 2,7C 2,6.44772 2.44772,6 3,6 Z M 16,10.5L 16,11L 18,11L 18,10.5C 18,10.2239 17.7761,10 17.5,10L 16.5,10C 16.2239,10 16,10.2239 16,10.5 Z M 16,14.5L 16,15L 18,15L 18,14.5C 18,14.2239 17.7761,14 17.5,14L 16.5,14C 16.2239,14 16,14.2239 16,14.5 Z "/>
</svg>
