<?xml version="1.0" encoding="utf-8"?>
<!DOCTYPE svg PUBLIC "-//W3C//DTD SVG 1.1//EN" "http://www.w3.org/Graphics/SVG/1.1/DTD/svg11.dtd">
<svg xmlns="http://www.w3.org/2000/svg" xmlns:xlink="http://www.w3.org/1999/xlink" version="1.1" baseProfile="full" width="24" height="24" viewBox="0 0 24.00 24.00" enable-background="new 0 0 24.00 24.00" xml:space="preserve">
	<path fill="#000000" fill-opacity="1" stroke-linejoin="round" d="M 2,11C 2.55228,11 3,11.4477 3,12C 3,12.5523 2.55228,13 2,13C 1.44772,13 1,12.5523 1,12C 1,11.4477 1.44771,11 2,11 Z M 21,13L 19,13L 19,5.00002L 17,5.00001L 17,3.00001L 23,3.00001L 23,5.00001L 21,5.00002L 21,13 Z M 16,3.00001L 16,5.00001L 14,5.00002L 14,7.00001L 16,7.00001L 16,9.00001L 14,9.00001L 14,11L 16,11L 16,13L 12,13L 12,3.00001L 16,3.00001 Z M 11,3.00001L 11,13L 8.99999,13L 5.99999,7.00001L 5.99999,13L 4,13L 4,3.00001L 6,3.00001L 8.99999,9.00001L 9,3.00001L 11,3.00001 Z M 7.24666,20.7492C 6.77513,20.9786 6.15923,21.0933 5.39895,21.0933C 4.40632,21.0933 3.62611,20.8002 3.05833,20.214C 2.49055,19.6277 2.20666,18.847 2.20666,17.8719C 2.20666,16.8326 2.52604,15.9897 3.16479,15.3431C 3.80354,14.6966 4.63236,14.3733 5.65124,14.3733C 6.28222,14.3733 6.81402,14.455 7.24666,14.6183L 7.24666,16.0533C 6.82083,15.8044 6.33569,15.68 5.79124,15.68C 5.19333,15.68 4.71086,15.8676 4.34385,16.2429C 3.97684,16.6182 3.79333,17.1267 3.79333,17.7683C 3.79333,18.3838 3.96638,18.874 4.3125,19.2391C 4.65861,19.6041 5.12479,19.7867 5.71104,19.7867C 6.27006,19.7867 6.78194,19.6622 7.24666,19.4133L 7.24666,20.7492 Z M 10.49,21.0933C 9.71416,21.0933 9.10409,20.8773 8.65979,20.4451C 8.21548,20.013 7.99333,19.426 7.99333,18.6842C 7.99333,17.919 8.22374,17.3204 8.68458,16.8882C 9.14541,16.4561 9.76861,16.24 10.5542,16.24C 11.3271,16.24 11.9335,16.4561 12.3734,16.8882C 12.8134,17.3204 13.0333,17.8923 13.0333,18.604C 13.0333,19.372 12.8066,19.9789 12.353,20.4247C 11.8995,20.8705 11.2785,21.0933 10.49,21.0933 Z M 10.5294,17.36C 10.1988,17.36 9.94239,17.4738 9.7601,17.7013C 9.57781,17.9288 9.48666,18.2506 9.48666,18.6667C 9.48666,19.5378 9.83715,19.9733 10.5381,19.9733C 11.206,19.9733 11.54,19.5261 11.54,18.6317C 11.54,17.7839 11.2031,17.36 10.5294,17.36 Z M 16.9533,17.5948C 16.7822,17.5005 16.5824,17.4533 16.354,17.4533C 16.0448,17.4533 15.8029,17.5693 15.6284,17.8011C 15.4539,18.033 15.3667,18.3488 15.3667,18.7483L 15.3667,21L 13.9667,21L 13.9667,16.3333L 15.3667,16.3333L 15.3667,17.1617L 15.3842,17.1617C 15.6097,16.5472 16.0156,16.24 16.6019,16.24L 16.9533,16.294L 16.9533,17.5948 Z M 21.8067,19.04L 18.82,19.04C 18.8686,19.7244 19.292,20.0667 20.0902,20.0667C 20.5996,20.0667 21.0474,19.9422 21.4333,19.6933L 21.4333,20.7433C 21.0065,20.9767 20.4524,21.0933 19.7708,21.0933C 19.0261,21.0933 18.4481,20.8862 18.0369,20.4721C 17.6256,20.0579 17.42,19.4804 17.42,18.7396C 17.42,17.9706 17.6407,17.3617 18.0821,16.913C 18.5235,16.4643 19.066,16.24 19.7096,16.24C 20.3775,16.24 20.894,16.4381 21.2591,16.8343C 21.6241,17.2305 21.8067,17.7678 21.8067,18.4465L 21.8067,19.04 Z M 20.5,18.2C 20.5,17.5778 20.2341,17.2667 19.7023,17.2667C 19.4758,17.2667 19.2796,17.3559 19.1138,17.5343C 18.9481,17.7127 18.8472,17.9346 18.8112,18.2L 20.5,18.2 Z "/>
</svg>
