<?xml version="1.0" encoding="utf-8"?>
<!DOCTYPE svg PUBLIC "-//W3C//DTD SVG 1.1//EN" "http://www.w3.org/Graphics/SVG/1.1/DTD/svg11.dtd">
<svg xmlns="http://www.w3.org/2000/svg" xmlns:xlink="http://www.w3.org/1999/xlink" version="1.1" baseProfile="full" width="24" height="24" viewBox="0 0 24.00 24.00" enable-background="new 0 0 24.00 24.00" xml:space="preserve">
	<path fill="#000000" fill-opacity="1" stroke-linejoin="round" d="M 22,10.251C 22,13.0579 19.9088,15.3333 17.3292,15.3333C 15.4975,15.3333 14.428,15.0041 13.9753,14.6338C 13.5226,14.2634 13.6049,13.9753 13.8107,13.7798C 14.244,13.3287 14.5103,12.716 14.5103,12.0412C 14.5103,10.6548 13.3864,9.53088 12,9.53088C 10.6136,9.53088 9.48971,10.6548 9.48971,12.0412C 9.48971,14.7575 12.2469,17.8025 16.4033,17.8025C 18.4609,17.8025 19.3663,17.1852 20.1482,16.856C 20.4362,16.8148 20.5597,17.2263 20.4362,17.4082C 18.6507,20.1469 15.5486,21.9589 12.0206,21.9589C 6.48637,21.9589 2,17.5001 2,12C 2,6.49989 6.48637,2.04116 12.0206,2.04116C 18.8785,2.04116 22,7.22607 22,10.251 Z "/>
</svg>
