<?xml version="1.0" encoding="utf-8"?>
<!DOCTYPE svg PUBLIC "-//W3C//DTD SVG 1.1//EN" "http://www.w3.org/Graphics/SVG/1.1/DTD/svg11.dtd">
<svg xmlns="http://www.w3.org/2000/svg" xmlns:xlink="http://www.w3.org/1999/xlink" version="1.1" baseProfile="full" width="24" height="24" viewBox="0 0 24.00 24.00" enable-background="new 0 0 24.00 24.00" xml:space="preserve">
	<path fill="#000000" fill-opacity="1" stroke-linejoin="round" d="M 5,19L 6,19L 6,16L 5,16L 5,5.00001L 16,5.00001L 16,16L 15,16L 15,19L 16,19C 16.5523,19 17,19.4477 17,20L 17,21L 4,21L 4,20C 4,19.4477 4.44771,19 5,19 Z M 8,16L 8,19L 13,19L 13,16L 8,16 Z M 23,9.75001L 23,11.25L 20,11.25L 20,11.5C 20,12.0523 19.5523,12.5 19,12.5L 19,14C 19,15.1046 18.1046,16 17,16L 16.5,16L 16.5,5L 17,5.00001C 18.1046,5.00001 19,5.89544 19,7.00001L 19,8.5C 19.5523,8.5 20,8.94772 20,9.5L 20,9.75001L 23,9.75001 Z M 4,16C 2.89543,16 2,15.1046 2,14L 2,7.00002C 2,5.89544 2.89543,5.00002 4,5.00002L 4.5,5.00001L 4.5,16L 4,16 Z M 7.5,7.00001C 7.22385,7.00001 7,7.22387 7,7.50001C 7,7.77615 7.22385,8.00001 7.5,8.00001L 13.5,8.00001C 13.7761,8.00001 14,7.77615 14,7.50001C 14,7.22387 13.7761,7.00001 13.5,7.00001L 7.5,7.00001 Z M 7.5,10C 7.22386,10 7,10.2239 7,10.5C 7,10.7761 7.22386,11 7.5,11L 13.5,11C 13.7761,11 14,10.7761 14,10.5C 14,10.2239 13.7761,10 13.5,10L 7.5,10 Z M 7.5,13C 7.22386,13 7,13.2239 7,13.5C 7,13.7761 7.22386,14 7.5,14L 13.5,14C 13.7761,14 14,13.7761 14,13.5C 14,13.2239 13.7761,13 13.5,13L 7.5,13 Z "/>
</svg>
