<?xml version="1.0" encoding="utf-8"?>
<!DOCTYPE svg PUBLIC "-//W3C//DTD SVG 1.1//EN" "http://www.w3.org/Graphics/SVG/1.1/DTD/svg11.dtd">
<svg xmlns="http://www.w3.org/2000/svg" xmlns:xlink="http://www.w3.org/1999/xlink" version="1.1" baseProfile="full" width="24" height="24" viewBox="0 0 24.00 24.00" enable-background="new 0 0 24.00 24.00" xml:space="preserve">
	<path fill="#000000" fill-opacity="1" stroke-width="0.2" stroke-linejoin="miter" d="M 11.5,3.00001C 14.15,3.00001 16.55,3.99 18.4,5.60001L 21,3.00001L 21,10L 14,10L 16.62,7.38C 15.23,6.22001 13.46,5.50001 11.5,5.50001C 7.96001,5.50001 4.95002,7.81001 3.90002,11L 1.53002,10.22C 2.91994,6.03 6.85002,3.00001 11.5,3.00001 Z M 9,12L 15,12L 15,14L 11,14L 11,16L 13,16C 14.1046,16 15,16.8954 15,18L 15,20C 15,21.1046 14.1046,22 13,22L 9,22L 9,20L 13,20L 13,18L 9,18L 9,12 Z "/>
</svg>
