<?xml version="1.0" encoding="utf-8"?>
<!DOCTYPE svg PUBLIC "-//W3C//DTD SVG 1.1//EN" "http://www.w3.org/Graphics/SVG/1.1/DTD/svg11.dtd">
<svg xmlns="http://www.w3.org/2000/svg" xmlns:xlink="http://www.w3.org/1999/xlink" version="1.1" baseProfile="full" width="24" height="24" viewBox="0 0 24.00 24.00" enable-background="new 0 0 24.00 24.00" xml:space="preserve">
	<path fill="#000000" fill-opacity="1" stroke-linejoin="round" d="M 12.001,2.00002C 6.47988,2.00002 2.00536,6.47294 2.00184,11.9926L 2,11.9926L 2,19.7325L 2.00184,19.7325C 2.00369,20.9858 3.01982,22 4.27351,22L 12.0051,22C 17.5269,21.997 22,17.5222 22,12.0012C 22,6.47758 17.5245,2.00002 12.001,2.00002 Z M 14.0275,6.11508C 15.707,6.11508 17.2925,7.40181 17.2925,9.1752C 17.2925,9.33984 17.2915,9.50443 17.2648,9.69092C 17.2183,10.1629 16.788,10.5012 16.3185,10.4347C 15.849,10.3675 15.5305,9.92294 15.6174,9.45657C 15.6251,9.4033 15.6284,9.31889 15.6284,9.1752C 15.6284,8.16978 14.806,7.78151 14.0277,7.78151C 13.2502,7.78151 12.5485,8.43556 12.5467,9.1752C 12.5601,10.0311 12.5467,10.8807 12.5467,11.7347L 13.9894,11.7238C 15.1164,11.7006 15.1289,13.3988 14.0022,13.3902L 12.5467,13.4012L 12.5357,15.79C 12.3615,17.6645 10.7662,19.1636 8.84893,19.1636C 6.81702,19.1636 5.14083,17.5011 5.14083,15.464C 5.20196,13.3684 6.8747,11.7215 8.97893,11.741L 10.1511,11.7324L 10.1511,13.3967L 8.97893,13.4076L 8.97036,13.4076C 7.81381,13.4416 6.82399,14.2254 6.80518,15.464C 6.80518,16.5926 7.71708,17.4972 8.84875,17.4972C 9.97875,17.4972 10.8818,16.6742 10.8818,15.4661C 10.8949,13.4628 10.8732,11.2497 10.88,9.16895C 10.8807,9.05199 10.8867,8.95895 10.8993,8.83014C 11.0899,7.28949 12.468,6.11508 14.0277,6.11508"/>
</svg>
