<?xml version="1.0" encoding="utf-8"?>
<!DOCTYPE svg PUBLIC "-//W3C//DTD SVG 1.1//EN" "http://www.w3.org/Graphics/SVG/1.1/DTD/svg11.dtd">
<svg xmlns="http://www.w3.org/2000/svg" xmlns:xlink="http://www.w3.org/1999/xlink" version="1.1" baseProfile="full" width="24" height="24" viewBox="0 0 24.00 24.00" enable-background="new 0 0 24.00 24.00" xml:space="preserve">
	<path fill="#000000" fill-opacity="1" stroke-linejoin="round" d="M 9.26487,7.94126C 9.27137,7.94171 9.26832,7.94148 9.26487,7.94126 Z M 6.85356,6.73575C 6.86006,6.73597 6.85684,6.73575 6.85356,6.73575 Z M 21.2797,8.5971C 20.8446,7.55042 19.9631,6.42019 19.2711,6.06301C 19.8345,7.16719 20.1604,8.27526 20.285,9.10189C 20.285,9.10361 20.2856,9.10772 20.2869,9.11861C 19.1547,6.29652 17.2346,5.15823 15.6666,2.68058C 15.5874,2.55514 15.508,2.42969 15.4307,2.2973C 15.3915,2.22963 15.3546,2.16035 15.3205,2.09007C 15.2556,1.96441 15.2054,1.83157 15.1712,1.69424C 15.1716,1.68079 15.1618,1.66907 15.1484,1.66729C 15.1423,1.66557 15.1358,1.66557 15.1295,1.66729L 15.1247,1.67013C 15.1223,1.67101 15.1195,1.67296 15.1173,1.67407L 15.1215,1.6684C 12.8949,2.9727 11.9719,5.25567 11.7347,6.70886C 11.0468,6.74791 10.3729,6.91997 9.75032,7.21536C 9.63315,7.27331 9.57843,7.41042 9.6236,7.53326C 9.67199,7.67304 9.83016,7.7412 9.96494,7.67998C 10.5082,7.4237 11.0943,7.27092 11.6933,7.22903C 11.7128,7.22747 11.7323,7.22642 11.7518,7.22492C 11.8341,7.21992 11.9166,7.21686 11.999,7.21597C 12.4851,7.21253 12.9693,7.27958 13.4361,7.41498C 13.4635,7.42303 13.4901,7.43237 13.5173,7.44081C 13.5948,7.46448 13.6718,7.49009 13.748,7.51742C 13.804,7.53826 13.8593,7.55998 13.9144,7.58276C 13.9592,7.60076 14.0038,7.61876 14.0479,7.63809C 14.1167,7.6687 14.1848,7.70059 14.2521,7.73426C 14.2832,7.74965 14.3139,7.76481 14.3445,7.78065C 14.4103,7.8152 14.4752,7.8512 14.5392,7.88854C 14.5807,7.91265 14.6217,7.93715 14.6623,7.96254C 15.3878,8.41132 15.9896,9.03394 16.4136,9.77417C 15.8788,9.39856 14.9214,9.02744 13.999,9.18806C 17.6007,10.9886 16.6339,17.1892 11.6429,16.955C 11.1985,16.937 10.7592,16.8522 10.3399,16.7038C 10.2408,16.6664 10.1427,16.6265 10.0459,16.5835C 9.98927,16.5577 9.93283,16.5317 9.87705,16.5028C 8.65414,15.8709 7.64441,14.6766 7.51829,13.2261C 7.51829,13.2261 7.98052,11.5038 10.828,11.5038C 11.1357,11.5038 12.0157,10.6449 12.0322,10.3957C 12.0284,10.3143 10.2857,9.62117 9.60621,8.95172C 9.24315,8.59405 9.07065,8.42154 8.91803,8.29221C 8.83514,8.2221 8.74859,8.15676 8.6587,8.09621C 8.43042,7.29781 8.42064,6.45252 8.63053,5.64912C 7.60185,6.11746 6.80173,6.85791 6.22011,7.51159L 6.21556,7.51159C 5.81861,7.00875 5.84661,5.35006 5.86922,5.00395C 5.86444,4.98245 5.57316,5.15523 5.53499,5.18106C 5.18449,5.43123 4.85726,5.71162 4.55626,6.01935C 4.21403,6.36658 3.90108,6.7418 3.62113,7.14092C 2.97724,8.05348 2.52062,9.0845 2.27756,10.1746C 2.27517,10.1857 2.18228,10.5934 2.11439,11.0974C 2.10289,11.1757 2.092,11.2542 2.08222,11.3328C 2.059,11.4843 2.041,11.6494 2.023,11.9066C 2.02233,11.9164 2.02172,11.9264 2.02106,11.9361C 2.01367,12.0472 2.00695,12.1581 2.00111,12.2692C 2.00111,12.2864 2,12.3033 2,12.3204C 2,17.8501 6.48334,22.3327 12.0136,22.3327C 16.9664,22.3327 21.0788,18.7372 21.8839,14.0147C 21.9009,13.8864 21.9143,13.7576 21.9293,13.6284C 22.1283,11.9111 21.9071,10.1065 21.2797,8.5971 Z "/>
</svg>
