<?xml version="1.0" encoding="utf-8"?>
<!DOCTYPE svg PUBLIC "-//W3C//DTD SVG 1.1//EN" "http://www.w3.org/Graphics/SVG/1.1/DTD/svg11.dtd">
<svg xmlns="http://www.w3.org/2000/svg" xmlns:xlink="http://www.w3.org/1999/xlink" version="1.1" baseProfile="full" width="24" height="24" viewBox="0 0 24.00 24.00" enable-background="new 0 0 24.00 24.00" xml:space="preserve">
	<path fill="#000000" fill-opacity="1" stroke-width="0.2" stroke-linejoin="round" d="M 15.461,15.8789L 16.877,14.4629L 19.001,16.5869L 21.1205,14.4673L 22.5321,15.8789L 20.4125,17.9984L 22.5365,20.1224L 21.1205,21.5384L 18.9965,19.4144L 16.877,21.5339L 15.4654,20.1224L 17.585,18.0028L 15.461,15.8789 Z M 6,22C 4.34315,22 3,20.6569 3,19C 3,18.3969 3.17796,17.8354 3.48423,17.3651L 9,7.81148L 9,6.00001C 8.44771,6.00001 8,5.55229 8,5L 8,4.00001C 8,2.89544 8.89543,2.00001 10,2.00001L 14,2C 15.1046,2 16,2.89543 16,4L 16,4.99999C 16,5.55228 15.5523,6 15,6L 15,7.81147L 17.5239,12.1829C 15.4859,12.6985 13.8633,14.2569 13.2571,16.2571L 8.93099,11.931L 5.18138,18.4255C 5.0671,18.5881 5,18.7862 5,19C 5,19.5523 5.44771,20 6,20L 13.3414,20C 13.6048,20.7452 14.0113,21.4229 14.5278,22L 6,22 Z M 13,10C 12.4477,10 12,10.4477 12,11C 12,11.5523 12.4477,12 13,12C 13.5523,12 14,11.5523 14,11C 14,10.4477 13.5523,10 13,10 Z "/>
</svg>
