<?xml version="1.0" encoding="utf-8"?>
<!DOCTYPE svg PUBLIC "-//W3C//DTD SVG 1.1//EN" "http://www.w3.org/Graphics/SVG/1.1/DTD/svg11.dtd">
<svg xmlns="http://www.w3.org/2000/svg" xmlns:xlink="http://www.w3.org/1999/xlink" version="1.1" baseProfile="full" width="24" height="24" viewBox="0 0 24.00 24.00" enable-background="new 0 0 24.00 24.00" xml:space="preserve">
	<path fill="#000000" fill-opacity="1" stroke-width="0.2" stroke-linejoin="round" d="M 17.9975,13.9987L 20,13.9987L 20,17.0025L 22.9975,17.0025L 22.9975,18.9987L 20,18.9987L 20,22.0025L 17.9975,22.0025L 17.9975,18.9987L 15,18.9987L 15,17.0025L 17.9975,17.0025L 17.9975,13.9987 Z M 5,19C 5,19.5523 5.44771,20 6,20L 13.3414,20C 13.6048,20.7452 14.0113,21.4229 14.5278,22L 6,22C 4.34314,22 3,20.6569 3,19C 3,18.3969 3.17796,17.8354 3.48423,17.3651L 9,7.81148L 9,6.00001C 8.44771,6.00001 7.99999,5.5523 8,5.00001L 7.99999,4.00002C 8,2.89545 8.89543,2.00002 10,2.00002L 14,2.00001C 15.1046,2.00001 16,2.89544 16,4.00001L 16,5C 16,5.55229 15.5523,6.00001 15,6.00001L 15,7.81147L 17.5239,12.1829C 16.8599,12.3509 16.2401,12.6295 15.6851,12.9981L 13,8.34737L 13,4L 11,4L 11,8.34737L 5.18138,18.4255C 5.0671,18.5881 5,18.7862 5,19 Z M 13,16L 13.5828,15.4172C 13.2092,16.1994 13,17.0753 13,18L 7.73205,18L 10.3923,13.3923L 13,16 Z M 12.5,12C 12.7761,12 13,12.2239 13,12.5C 13,12.7761 12.7761,13 12.5,13C 12.2239,13 12,12.7761 12,12.5C 12,12.2239 12.2239,12 12.5,12 Z "/>
</svg>
