<?xml version="1.0" encoding="utf-8"?>
<!DOCTYPE svg PUBLIC "-//W3C//DTD SVG 1.1//EN" "http://www.w3.org/Graphics/SVG/1.1/DTD/svg11.dtd">
<svg xmlns="http://www.w3.org/2000/svg" xmlns:xlink="http://www.w3.org/1999/xlink" version="1.1" baseProfile="full" width="24" height="24" viewBox="0 0 24.00 24.00" enable-background="new 0 0 24.00 24.00" xml:space="preserve">
	<path fill="#000000" fill-opacity="1" stroke-width="0.2" stroke-linejoin="round" d="M 17.9975,13.9987L 20,13.9987L 20,17.0025L 22.9975,17.0025L 22.9975,18.9987L 20,18.9987L 20,22.0025L 17.9975,22.0025L 17.9975,18.9987L 15,18.9987L 15,17.0025L 17.9975,17.0025L 17.9975,13.9987 Z M 6,22C 4.34315,22 3,20.6569 3,19C 3,18.3969 3.17796,17.8354 3.48423,17.3651L 9,7.81147L 9,6.00001C 8.44771,6.00001 8,5.55229 8,5L 8,4.00001C 8,2.89544 8.89543,2.00001 10,2.00001L 14,2C 15.1046,2 16,2.89543 16,4L 16,4.99999C 16,5.55228 15.5523,6 15,6L 15,7.81146L 17.5239,12.1829C 14.9239,12.8407 13,15.1957 13,18C 13,19.5367 13.5777,20.9385 14.5278,22L 6,22 Z "/>
</svg>
