<?xml version="1.0" encoding="utf-8"?>
<!DOCTYPE svg PUBLIC "-//W3C//DTD SVG 1.1//EN" "http://www.w3.org/Graphics/SVG/1.1/DTD/svg11.dtd">
<svg xmlns="http://www.w3.org/2000/svg" xmlns:xlink="http://www.w3.org/1999/xlink" version="1.1" baseProfile="full" width="24" height="24" viewBox="0 0 24.00 24.00" enable-background="new 0 0 24.00 24.00" xml:space="preserve">
	<path fill="#000000" fill-opacity="1" stroke-width="0.2" stroke-linejoin="round" d="M 19,15C 19,18.866 15.866,22 12,22C 8.13401,22 5,18.866 5,15C 5,12.2076 6.63505,9.7971 9,8.67363L 9,5.00001C 9,4.44772 9.44771,4.00001 10,4.00001L 10.5,4L 9.5,2.00001L 14.5,2.00001L 13.5,4L 14,4.00001C 14.5523,4.00001 15,4.44772 15,5.00001L 15,8.67363C 17.3649,9.7971 19,12.2076 19,15 Z M 11,6.00001L 11,10.1C 8.71776,10.5633 7,12.581 7,15L 7.08331,15.9138L 8.99998,13.931L 13.069,18L 16.9267,14.1423C 16.5764,12.1159 15.0063,10.5073 13,10.1L 13,6.00001L 11,6.00001 Z M 13.069,12C 13.6213,12 14.069,12.4477 14.069,13C 14.069,13.5523 13.6213,14 13.069,14C 12.5167,14 12.069,13.5523 12.069,13C 12.069,12.4477 12.5167,12 13.069,12 Z "/>
</svg>
