<?xml version="1.0" encoding="utf-8"?>
<!DOCTYPE svg PUBLIC "-//W3C//DTD SVG 1.1//EN" "http://www.w3.org/Graphics/SVG/1.1/DTD/svg11.dtd">
<svg xmlns="http://www.w3.org/2000/svg" xmlns:xlink="http://www.w3.org/1999/xlink" version="1.1" baseProfile="full" width="24" height="24" viewBox="0 0 24.00 24.00" enable-background="new 0 0 24.00 24.00" xml:space="preserve">
	<path fill="#000000" fill-opacity="1" stroke-width="0.2" stroke-linejoin="round" d="M 15,15C 15,16.6569 13.6568,18 12,18C 10.3431,18 9,16.6569 9,15L 9,14L 11,14L 11,15C 11,15.5523 11.4477,16 12,16C 12.5523,16 13,15.5523 13,15L 13,14L 15,14L 15,15 Z M 19,15C 19,18.866 15.866,22 12,22C 8.134,22 5,18.866 5,15C 5,12.2076 6.63505,9.7971 9,8.67364L 9,5.00001C 9,4.44773 9.44771,4.00001 10,4.00001L 10.5,4.00001L 9.5,2.00002L 14.5,2.00002L 13.5,4.00001L 14,4.00001C 14.5523,4.00001 15,4.44773 15,5.00001L 15,8.67364C 17.3649,9.7971 19,12.2076 19,15 Z M 11,6.00002L 11,10.1C 8.71775,10.5633 6.99999,12.5811 6.99999,15C 6.99999,17.7614 9.23857,20 12,20C 14.7614,20 17,17.7614 17,15C 17,12.5811 15.2822,10.5633 13,10.1L 13,6.00002L 11,6.00002 Z "/>
</svg>
