<?xml version="1.0" encoding="utf-8"?>
<!DOCTYPE svg PUBLIC "-//W3C//DTD SVG 1.1//EN" "http://www.w3.org/Graphics/SVG/1.1/DTD/svg11.dtd">
<svg xmlns="http://www.w3.org/2000/svg" xmlns:xlink="http://www.w3.org/1999/xlink" version="1.1" baseProfile="full" width="24" height="24" viewBox="0 0 24.00 24.00" enable-background="new 0 0 24.00 24.00" xml:space="preserve">
	<path fill="#000000" fill-opacity="1" stroke-linejoin="round" d="M 6,2L 18,2C 18.5523,2 19,2.44772 19,3L 19,19C 19,20.6569 17.6569,22 16,22L 6,22C 5.44771,22 5,21.5523 5,21L 5,3C 5,2.44772 5.44771,2 6,2 Z M 7,4.00001L 6.99999,11L 17,11L 17,4.00001L 7,4.00001 Z M 8.49999,13L 8.49999,14.5L 6.99999,14.5L 6.99999,15.5L 8.49999,15.5L 8.49999,17L 9.49999,17L 9.49999,15.5L 11,15.5L 11,14.5L 9.49999,14.5L 9.49999,13L 8.49999,13 Z M 16,13C 15.4477,13 15,13.4477 15,14C 15,14.5523 15.4477,15 16,15C 16.5523,15 17,14.5523 17,14C 17,13.4477 16.5523,13 16,13 Z M 14,15C 13.4477,15 13,15.4477 13,16C 13,16.5523 13.4477,17 14,17C 14.5523,17 15,16.5523 15,16C 15,15.4477 14.5523,15 14,15 Z "/>
</svg>
