<?xml version="1.0" encoding="utf-8"?>
<!DOCTYPE svg PUBLIC "-//W3C//DTD SVG 1.1//EN" "http://www.w3.org/Graphics/SVG/1.1/DTD/svg11.dtd">
<svg xmlns="http://www.w3.org/2000/svg" xmlns:xlink="http://www.w3.org/1999/xlink" version="1.1" baseProfile="full" width="24" height="24" viewBox="0 0 24.00 24.00" enable-background="new 0 0 24.00 24.00" xml:space="preserve">
	<path fill="#000000" fill-opacity="1" stroke-width="0.2" stroke-linejoin="miter" d="M 16.9803,8.76353L 16.9549,8.772C 17.2176,9.094 17.4464,9.4499 17.6159,9.83122L 17.726,10.0515C 18.531,12.0005 17.9802,14.2376 16.455,15.6442C 15.0907,16.8983 13.1841,17.2288 11.4046,17C 9.73524,16.7882 8.18453,15.7374 7.30326,14.2714C 7.0321,13.8223 6.81178,13.3139 6.69315,12.8055C 6.54909,12.3818 6.49825,11.9581 6.46436,11.5344C 6.36268,9.69564 7.0999,7.74668 8.4896,6.59424C 7.85406,7.98394 8.00659,9.72106 8.9387,10.9328L 9.06581,11.0769C 9.21834,11.2124 9.4217,11.2633 9.60813,11.1785C 9.77761,11.1108 9.90471,10.9413 9.90471,10.7549L 9.83693,10.4752C 8.82007,7.80599 9.66745,4.69612 11.8198,2.93357C 12.413,2.45057 13.1333,2.00993 13.8959,1.81503C 13.1078,3.38268 13.379,5.42486 14.6162,6.66203C 15.15,7.19588 15.7855,7.56025 16.3363,8.06868L 16.9803,8.76353 Z M 14.3535,14.102L 14.345,14.0935C 14.8534,13.6359 15.15,12.8733 15.1246,12.1784L 15.0737,11.8141C 14.8619,10.6617 13.8535,10.2888 13.2095,9.44143C 13.0146,9.18722 12.8451,8.86521 12.718,8.54321C 12.4638,9.1279 12.4469,9.66175 12.5486,10.2888C 12.6587,10.9413 12.9214,11.5005 12.7773,12.1784C 12.6079,12.9326 12.0147,13.6783 10.9979,13.9155C 11.5741,14.4748 12.5062,14.9324 13.4383,14.6104C 13.7349,14.5257 14.1162,14.3053 14.3535,14.102 Z M 11,18L 11,19C 11,19.5523 11.4477,20 12,20C 12.5523,20 13,19.5523 13,19L 13,18L 15,18L 15,19C 15,19.5523 15.4477,20 16,20C 16.5523,20 17,19.5523 17,19L 17,18C 18.1045,18 20,18.8954 20,20L 20,22L 4,22L 4,20C 4,18.8954 5.89543,18 7,18L 7,19C 7,19.5523 7.44771,20 7.99999,20C 8.55228,20 8.99999,19.5523 8.99999,19L 8.99999,18L 11,18 Z "/>
</svg>
