<?xml version="1.0" encoding="utf-8"?>
<!DOCTYPE svg PUBLIC "-//W3C//DTD SVG 1.1//EN" "http://www.w3.org/Graphics/SVG/1.1/DTD/svg11.dtd">
<svg xmlns="http://www.w3.org/2000/svg" xmlns:xlink="http://www.w3.org/1999/xlink" version="1.1" baseProfile="full" width="24" height="24" viewBox="0 0 24.00 24.00" enable-background="new 0 0 24.00 24.00" xml:space="preserve">
	<path fill="#000000" fill-opacity="1" stroke-linejoin="round" d="M 23,14.75C 23,18.2018 20.2018,21 16.75,21L 7.25,21C 3.79822,21 0.999999,18.2018 0.999999,14.75C 0.999999,12.6106 2.07493,10.7223 3.71416,9.59562C 4.5788,5.81809 7.9603,3 12,3C 16.0397,3 19.4212,5.8181 20.2858,9.59564C 21.9251,10.7223 23,12.6106 23,14.75 Z M 16.625,17C 17.9367,17 19,15.9367 19,14.625C 19,13.3464 17.9896,12.3038 16.7238,12.252L 16.75,11.75C 16.75,9.12665 14.6234,7 12,7C 10.5794,7 9.30449,7.62361 8.43404,8.61201C 9.92642,8.89818 11.2302,9.71513 12.1412,10.8588L 9.47857,13.5214C 9.08119,12.7655 8.2883,12.25 7.375,12.25C 6.06332,12.25 5,13.3133 5,14.625C 5,15.8947 5.99643,16.9318 7.25,16.9968L 7.25,17L 16.625,17 Z "/>
</svg>
