<?xml version="1.0" encoding="utf-8"?>
<!DOCTYPE svg PUBLIC "-//W3C//DTD SVG 1.1//EN" "http://www.w3.org/Graphics/SVG/1.1/DTD/svg11.dtd">
<svg xmlns="http://www.w3.org/2000/svg" xmlns:xlink="http://www.w3.org/1999/xlink" version="1.1" baseProfile="full" width="24" height="24" viewBox="0 0 24.00 24.00" enable-background="new 0 0 24.00 24.00" xml:space="preserve">
	<path fill="#000000" fill-opacity="1" stroke-linejoin="round" d="M 3.65726,19.0242L 5.13387,19.0242C 5.9523,19.0242 6.75712,18.5614 6.75712,17.4122L 6.75712,6.58782C 6.75712,5.13184 6.27172,4.97578 4.76364,4.97578L 3.74982,4.97578L 3.74982,3L 20.3428,3L 20.3428,10.1813L 18.4082,10.1813C 18.4082,8.46534 18.212,7.21176 17.7215,6.27576C 17.182,5.2358 16.0756,4.97597 14.1381,4.97597L 10.1917,4.97597L 10.1917,10.7017L 10.9574,10.7017C 13.1932,10.7017 13.7859,10.142 13.7392,7.15971L 15.4839,7.15971L 15.4839,16.4502L 13.7392,16.4502C 13.5832,13.4606 13.4157,12.3932 10.6134,12.4259L 10.1455,12.4259L 10.1455,17.4122C 10.1455,18.8682 10.7495,19.0242 12.2574,19.0242L 13.3404,19.0242L 13.3404,21L 3.65726,21"/>
</svg>
