<?xml version="1.0" encoding="utf-8"?>
<!DOCTYPE svg PUBLIC "-//W3C//DTD SVG 1.1//EN" "http://www.w3.org/Graphics/SVG/1.1/DTD/svg11.dtd">
<svg xmlns="http://www.w3.org/2000/svg" xmlns:xlink="http://www.w3.org/1999/xlink" version="1.1" baseProfile="full" width="24" height="24" viewBox="0 0 24.00 24.00" enable-background="new 0 0 24.00 24.00" xml:space="preserve">
	<path fill="#000000" fill-opacity="1" stroke-width="0.2" stroke-linejoin="miter" d="M 19,23.3027L 18.4013,22.8027C 16.4013,20.9013 15,19.6973 15,18.1973C 15,17 16,16 17.1973,16C 17.9013,16 18.5987,16.3027 19,16.8027C 19.4013,16.3027 20.0987,16 20.8027,16C 22,16 23,16.9013 23,18.1973C 23,19.6973 21.5987,20.9013 19.5987,22.8027L 19,23.3027 Z M 3,7.00001L 3,5L 5,5L 5,4C 5,2.89 5.9,2.00001 7,2.00001L 13,2.00001L 13,9L 15.5,7.5L 18,9L 18,2.00001L 19,2.00001C 20.0472,2.00001 21,2.9528 21,4L 21,13.3414C 20.3744,13.1203 19.7013,13 19,13C 15.6863,13 13,15.6863 13,19C 13,20.0929 13.2922,21.1175 13.8027,22L 7,22C 5.9528,22 5,21.047 5,20L 5,19L 3,19L 3,17L 5,17L 5,13L 3,13L 3,11L 5,11L 5,7.00001L 3,7.00001 Z M 5,5L 5,7.00001L 7,7.00001L 7,5.00001L 5,5 Z M 5,19L 7,19L 7,17L 5,17L 5,19 Z M 5,13L 7,13L 7,11L 5,11L 5,13 Z "/>
</svg>
