<?xml version="1.0" encoding="utf-8"?>
<!DOCTYPE svg PUBLIC "-//W3C//DTD SVG 1.1//EN" "http://www.w3.org/Graphics/SVG/1.1/DTD/svg11.dtd">
<svg xmlns="http://www.w3.org/2000/svg" xmlns:xlink="http://www.w3.org/1999/xlink" version="1.1" baseProfile="full" width="24" height="24" viewBox="0 0 24.00 24.00" enable-background="new 0 0 24.00 24.00" xml:space="preserve">
	<path fill="#000000" fill-opacity="1" stroke-width="0.2" stroke-linejoin="miter" d="M 19,23.3027L 18.4013,22.8027C 16.4013,20.9013 15,19.6973 15,18.1973C 15,17 16,16 17.1973,16C 17.9013,16 18.5987,16.3027 19,16.8027C 19.4013,16.3027 20.0987,16 20.8027,16C 22,16 23,16.9013 23,18.1973C 23,19.6973 21.5987,20.9013 19.5987,22.8027L 19,23.3027 Z M 17,4L 17,10L 15,8L 13,10L 13,4L 9,4L 9,20L 13.083,20C 13.2034,20.7179 13.4513,21.3926 13.8027,22L 7,22C 5.9528,22 5,21.047 5,20L 5,19L 3,19L 3,17L 5,17L 5,13L 3,13L 3,11L 5,11L 5,7.00001L 3,7.00001L 3,5.00001L 5,5.00001L 5,4.00001C 5,2.89001 5.9,2.00001 7,2.00001L 19,2.00001C 20.0472,2.00001 21,2.95281 21,4.00001L 21,13.3414C 20.3744,13.1203 19.7013,13 19,13L 19,4L 17,4 Z M 5,19L 7,19L 7,17L 5,17L 5,19 Z M 5,13L 7,13L 7,11L 5,11L 5,13 Z M 5,7.00001L 7,7.00001L 7,5.00001L 5,5.00001L 5,7.00001 Z "/>
</svg>
