<?xml version="1.0" encoding="utf-8"?>
<!DOCTYPE svg PUBLIC "-//W3C//DTD SVG 1.1//EN" "http://www.w3.org/Graphics/SVG/1.1/DTD/svg11.dtd">
<svg xmlns="http://www.w3.org/2000/svg" xmlns:xlink="http://www.w3.org/1999/xlink" version="1.1" baseProfile="full" width="24" height="24" viewBox="0 0 24.00 24.00" enable-background="new 0 0 24.00 24.00" xml:space="preserve">
	<path fill="#000000" fill-opacity="1" stroke-width="0.2" stroke-linejoin="round" d="M 23,17.3027L 23,20.8027C 23,21.4013 22.4,22 21.6973,22L 16.1973,22C 15.5987,22 15,21.4013 15,20.6973L 15,17.1973C 15,16.5987 15.5987,16 16.1973,16L 16.1973,13.5C 16.1973,12.0987 17.5987,11 19,11C 20.4,11 21.8013,12.0987 21.8013,13.5L 21.8013,14L 20.5,14L 20.5,13.5C 20.5,12.6973 19.8013,12.1973 19,12.1973C 18.1973,12.1973 17.5,12.6973 17.5,13.5L 17.5,16L 21.8013,16C 22.4,16 23,16.5987 23,17.3027 Z M 8.99938,7.99808L 8.99938,15.9981L 13.9994,11.9981L 8.99938,7.99808 Z M 13,18.9984L 13,20.9981L 3.99939,20.9981C 2.89538,20.9981 1.99939,20.1031 1.99939,18.9981L 1.99939,4.99808C 1.99939,3.89408 2.89538,2.99808 3.99939,2.99808L 17.9994,2.99808C 19.1034,2.99808 19.9994,3.89408 19.9994,4.99808L 19.9994,9.0999L 19,9.00001C 16.2386,9.00001 14,11.2386 14,14L 14,14.7639C 13.3862,15.3132 13,16.1115 13,17L 13,18.9984 Z "/>
</svg>
