<?xml version="1.0" encoding="utf-8"?>
<!DOCTYPE svg PUBLIC "-//W3C//DTD SVG 1.1//EN" "http://www.w3.org/Graphics/SVG/1.1/DTD/svg11.dtd">
<svg xmlns="http://www.w3.org/2000/svg" xmlns:xlink="http://www.w3.org/1999/xlink" version="1.1" baseProfile="full" width="24" height="24" viewBox="0 0 24.00 24.00" enable-background="new 0 0 24.00 24.00" xml:space="preserve">
	<path fill="#000000" fill-opacity="1" stroke-width="0.2" stroke-linejoin="round" d="M 0.999999,4.26849L 2.99942,6.2679C 2.40194,6.6138 2,7.25996 2,8L 2,20C 2,21.1046 2.89543,22 4,22L 18.7315,22L 20.7315,24L 22,22.7229L 2.27711,3.00001L 0.999999,4.26849 Z M 20,6L 8.82842,6L 16.4724,2.83377L 15.707,0.986008L 6.58652,4.76383L 9.8227,8.00001L 20,8.00001L 20,12L 18,12L 18,10L 16,10L 16,12L 13.8227,12L 22,20.1773L 22,8C 22,6.89543 21.1046,6 20,6 Z M 4,8.00002L 4.73152,8.00002L 8.73152,12L 4,12L 4,8.00002 Z M 7,14C 8.65685,14 10,15.3432 10,17C 10,18.6569 8.65685,20 7,20C 5.34314,20 4,18.6569 4,17C 4,15.3432 5.34314,14 7,14 Z "/>
</svg>
