<?xml version="1.0" encoding="utf-8"?>
<!DOCTYPE svg PUBLIC "-//W3C//DTD SVG 1.1//EN" "http://www.w3.org/Graphics/SVG/1.1/DTD/svg11.dtd">
<svg xmlns="http://www.w3.org/2000/svg" xmlns:xlink="http://www.w3.org/1999/xlink" version="1.1" baseProfile="full" width="24" height="24" viewBox="0 0 24.00 24.00" enable-background="new 0 0 24.00 24.00" xml:space="preserve">
	<path fill="#000000" fill-opacity="1" stroke-linejoin="round" d="M 17.1507,14.3173L 14.7187,11.9013L 14,9L 15.5,9L 16.24,12L 16.9787,9L 18.5,9L 19.24,12L 19.9787,9L 21.4787,9L 19.9787,15L 18.5,15L 17.74,11.9587L 17.1507,14.3173 Z M 1.39067,4.21867L 2.812,2.812L 21.188,21.1973L 19.7813,22.6093L 10.672,13.5L 10.6307,13.5L 10.2507,15L 8.74933,15L 9.432,12.26L 8,10.828L 8,11.5C 8,12.0987 7.59867,12.5987 7.09867,12.9013L 8,15L 6.5,15L 5.59867,13L 4.5,13L 4.5,15L 3,15L 3,9L 6.172,9L 1.39067,4.21867 Z M 6.5,11.5L 6.5,10.5L 4.5,10.5L 4.5,11.5L 6.5,11.5 Z "/>
</svg>
