<?xml version="1.0" encoding="utf-8"?>
<!DOCTYPE svg PUBLIC "-//W3C//DTD SVG 1.1//EN" "http://www.w3.org/Graphics/SVG/1.1/DTD/svg11.dtd">
<svg xmlns="http://www.w3.org/2000/svg" xmlns:xlink="http://www.w3.org/1999/xlink" version="1.1" baseProfile="full" width="24" height="24" viewBox="0 0 24.00 24.00" enable-background="new 0 0 24.00 24.00" xml:space="preserve">
	<path fill="#000000" fill-opacity="1" stroke-linejoin="round" d="M 6.5,9C 7.30267,9 8,9.69733 8,10.5L 8,11.5C 8,12.0987 7.59867,12.5987 7.09867,12.9013L 8,15L 6.5,15L 5.59867,13L 4.5,13L 4.5,15L 3,15L 3,9L 6.5,9 Z M 6.5,11.5L 6.5,10.5L 4.5,10.5L 4.5,11.5L 6.5,11.5 Z M 10.2507,9L 12.7493,9L 14.2507,15L 12.7493,15L 12.38,13.5L 10.6307,13.5L 10.2507,15L 8.74933,15L 10.2507,9 Z M 11,12L 12,12L 11.7493,11L 11.2507,11L 11,12 Z M 19.9787,9L 21.4787,9L 19.9787,15L 18.5,15L 17.74,11.9587L 16.9787,15L 15.5,15L 14,9L 15.5,9L 16.24,12L 16.9787,9L 18.5,9L 19.24,12L 19.9787,9 Z "/>
</svg>
