<?xml version="1.0" encoding="utf-8"?>
<!DOCTYPE svg PUBLIC "-//W3C//DTD SVG 1.1//EN" "http://www.w3.org/Graphics/SVG/1.1/DTD/svg11.dtd">
<svg xmlns="http://www.w3.org/2000/svg" xmlns:xlink="http://www.w3.org/1999/xlink" version="1.1" baseProfile="full" width="24" height="24" viewBox="0 0 24.00 24.00" enable-background="new 0 0 24.00 24.00" xml:space="preserve">
	<path fill="#000000" fill-opacity="1" stroke-width="0.2" stroke-linejoin="miter" d="M 12.5,3.00001C 17.15,3.00001 21.0801,6.03 22.47,10.22L 20.1,11C 19.05,7.81001 16.04,5.50001 12.5,5.50001C 10.54,5.50001 8.77,6.22001 7.37999,7.38L 10,10L 3,10L 3,3.00001L 5.6,5.60001C 7.44999,3.99 9.85,3.00001 12.5,3.00001 Z M 9,12L 15,12L 15,14L 11,14L 11,16L 13,16C 14.1046,16 15,16.8954 15,18L 15,20C 15,21.1046 14.1046,22 13,22L 9,22L 9,20L 13,20L 13,18L 9,18L 9,12 Z "/>
</svg>
