<?xml version="1.0" encoding="utf-8"?>
<!DOCTYPE svg PUBLIC "-//W3C//DTD SVG 1.1//EN" "http://www.w3.org/Graphics/SVG/1.1/DTD/svg11.dtd">
<svg xmlns="http://www.w3.org/2000/svg" xmlns:xlink="http://www.w3.org/1999/xlink" version="1.1" baseProfile="full" width="24" height="24" viewBox="0 0 24.00 24.00" enable-background="new 0 0 24.00 24.00" xml:space="preserve">
	<path fill="#000000" fill-opacity="1" fill-rule="evenodd" stroke-width="0.2" stroke-linejoin="round" d="M 1,14C 0.999997,16.7614 3.23857,19 6,19C 7.63582,19 9.08816,18.2144 10.0004,17L 15.1707,17C 15.5825,18.1652 16.6938,19 18,19C 19.3062,19 20.4175,18.1652 20.8293,17L 23,17L 23,15C 23,9.47715 18.5228,5.00002 13,5.00002L 9,5.00002L 3,5L 1,5L 1,14 Z M 20.9855,15L 10.9,15C 10.9656,14.6769 11,14.3425 11,14C 11,11.2386 8.76142,9 6,9C 4.87439,9 3.83566,9.37195 3,9.99964L 3,7L 9,7L 12.5,7.00001C 15.0969,7 17.4218,8.16459 18.981,10L 15,10L 15,12L 20.2483,12C 20.6662,12.9238 20.9238,13.9356 20.9855,15 Z M 6,11C 7.65686,11 9,12.3432 9,14C 9,15.6569 7.65686,17 6,17C 4.34315,17 3,15.6569 3,14C 3,12.3432 4.34315,11 6,11 Z "/>
</svg>
