<?xml version="1.0" encoding="utf-8"?>
<!DOCTYPE svg PUBLIC "-//W3C//DTD SVG 1.1//EN" "http://www.w3.org/Graphics/SVG/1.1/DTD/svg11.dtd">
<svg xmlns="http://www.w3.org/2000/svg" xmlns:xlink="http://www.w3.org/1999/xlink" version="1.1" baseProfile="full" width="24" height="24" viewBox="0 0 24.00 24.00" enable-background="new 0 0 24.00 24.00" xml:space="preserve">
	<path fill="#000000" fill-opacity="1" stroke-width="0.2" stroke-linejoin="miter" d="M 4,19L 8.60155,19L 2.62231,8.64367C 2.22826,8.02406 2,7.28869 2,6.5C 2,4.29086 3.79086,2.5 6,2.5C 7.86384,2.5 9.42994,3.77477 9.87398,5.5L 14,5.50001L 14,3.00001C 14,1.89541 14.8954,1.00002 16,1.00002L 16,3.59L 17.59,2L 22,2L 22,4L 18.41,4L 16,6.41L 16,6.59L 18.41,9L 22,9L 22,11L 17.59,11L 16,9.41L 16,12C 14.8954,12 14,11.1046 14,10L 14,7.50001L 9.87398,7.5C 9.77286,7.89287 9.61356,8.26238 9.40581,8.59879L 15.4109,19L 20,19C 21.1046,19 22,19.8954 22,21L 22,22L 2,22L 2,21C 2,19.8954 2.89543,19 4,19 Z M 7.91326,10.0136C 7.34587,10.3232 6.69522,10.4994 6.00347,10.5L 10.9109,19L 13.1015,19L 7.91326,10.0136 Z M 6,4.50001C 4.89543,4.50001 4,5.39544 4,6.50001C 4,7.60458 4.89543,8.50001 6,8.50001C 7.10457,8.50001 8,7.60458 8,6.50001C 8,5.39544 7.10457,4.50001 6,4.50001 Z "/>
</svg>
