<?xml version="1.0" encoding="utf-8"?>
<!DOCTYPE svg PUBLIC "-//W3C//DTD SVG 1.1//EN" "http://www.w3.org/Graphics/SVG/1.1/DTD/svg11.dtd">
<svg xmlns="http://www.w3.org/2000/svg" xmlns:xlink="http://www.w3.org/1999/xlink" version="1.1" baseProfile="full" width="24" height="24" viewBox="0 0 24.00 24.00" enable-background="new 0 0 24.00 24.00" xml:space="preserve">
	<path fill="#000000" fill-opacity="1" stroke-width="0.2" stroke-linejoin="round" d="M 9.5,7C 10.3284,7 11,7.67158 11,8.5C 11,9.32843 10.3284,10 9.5,10C 8.67157,10 8,9.32843 8,8.5C 8,7.67158 8.67157,7 9.5,7 Z M 14.5,14C 15.3284,14 16,14.6716 16,15.5C 16,16.3284 15.3284,17 14.5,17C 13.6716,17 13,16.3284 13,15.5C 13,14.6716 13.6716,14 14.5,14 Z M 8.41421,17L 7,15.5858L 15.5858,7L 17,8.41422L 8.41421,17 Z M 18.6504,2.84663L 19.2626,6.71221L 22.7677,8.49813L 20.9909,11.9853L 22.7768,15.4904L 19.2377,17.2936L 18.6265,21.1526L 14.7411,20.5372L 11.9737,23.3047L 9.19205,20.523L 5.32646,21.1353L 4.71108,17.2499L 1.22388,15.4731L 3.0098,11.968L 1.23299,8.48082L 4.74402,6.69186L 5.3503,2.86395L 9.21589,3.47619L 11.9975,0.694565L 14.765,3.46202L 18.6504,2.84663 Z M 20.1,9.36816L 17.5046,8.00072L 17.0061,5.10974L 14.1026,5.52902L 12,3.48316L 9.89745,5.52902L 6.99393,5.10974L 6.49545,8.00072L 3.9,9.36816L 5.196,12L 3.9,14.6319L 6.49545,15.9993L 6.99393,18.8903L 9.89745,18.471L 12,20.5169L 14.1026,18.471L 17.0061,18.8903L 17.5046,15.9993L 20.1,14.6319L 18.804,12L 20.1,9.36816 Z "/>
</svg>
