<?xml version="1.0" encoding="utf-8"?>
<!DOCTYPE svg PUBLIC "-//W3C//DTD SVG 1.1//EN" "http://www.w3.org/Graphics/SVG/1.1/DTD/svg11.dtd">
<svg xmlns="http://www.w3.org/2000/svg" xmlns:xlink="http://www.w3.org/1999/xlink" version="1.1" baseProfile="full" width="24" height="24" viewBox="0 0 24.00 24.00" enable-background="new 0 0 24.00 24.00" xml:space="preserve">
	<path fill="#000000" fill-opacity="1" stroke-linejoin="round" d="M 16.5,2.25C 17.3284,2.25 18,2.92158 18,3.75C 18,4.57843 17.3284,5.25 16.5,5.25C 15.6716,5.25 15,4.57843 15,3.75C 15,2.92158 15.6716,2.25 16.5,2.25 Z M 20,18C 21.1046,18 22,18.8954 22,20C 22,21.1046 21.1046,22 20,22C 19.2597,22 18.6134,21.5978 18.2676,21L 8.73243,21C 8.38662,21.5978 7.74028,22 7,22C 5.89543,22 5,21.1046 5,20C 5,18.8954 5.89543,18 7,18C 7.74028,18 8.38662,18.4022 8.73243,19L 13,19L 13,13.5206L 9.72459,11.2271L 6.76406,13.9878C 6.36015,14.3645 5.72737,14.3424 5.35071,13.9385L 2.28172,10.6474C 1.90507,10.2435 1.92716,9.61069 2.33108,9.23404C 2.73499,8.85738 3.36777,8.87948 3.74443,9.28339L 6.13142,11.8431L 13.2597,5.19587L 13.2986,5.17563C 13.7217,4.82063 14.3524,4.87581 14.7074,5.29889L 16.974,8.00001L 20,8.00001C 20.5523,8.00001 21,8.44773 21,9.00001C 21,9.55229 20.5523,10 20,10L 16.5,10C 16.1532,10 15.8477,9.82351 15.6683,9.55544L 14.1679,7.76732L 11.6387,10.1258L 14.5721,12.1798L 14.5736,12.1809C 14.8314,12.3617 15,12.6612 15,13L 15,19L 15.6115,19C 16.036,17.1293 17.626,15.7012 19.5777,15.5196L 18.8083,11L 20.3083,11L 21.3875,17.3395C 20.9726,17.1226 20.5006,17 20,17C 18.6938,17 17.5825,17.8348 17.1707,19L 18.2676,19C 18.6134,18.4022 19.2597,18 20,18 Z "/>
</svg>
