<?xml version="1.0" encoding="utf-8"?>
<!DOCTYPE svg PUBLIC "-//W3C//DTD SVG 1.1//EN" "http://www.w3.org/Graphics/SVG/1.1/DTD/svg11.dtd">
<svg xmlns="http://www.w3.org/2000/svg" xmlns:xlink="http://www.w3.org/1999/xlink" version="1.1" baseProfile="full" width="24" height="24" viewBox="0 0 24.00 24.00" enable-background="new 0 0 24.00 24.00" xml:space="preserve">
	<path fill="#000000" fill-opacity="1" stroke-width="0.2" stroke-linejoin="round" d="M 13,9.80266L 13,10.6973L 11.3027,10.9013C 8.69734,11.3027 6.80266,12.3027 5.40133,13.5987C 7.09867,13.0987 8.90133,12.8027 11,12.8027L 13,12.8027L 13,14.0987L 15.1973,12L 13,9.80266 Z M 11,5L 18,12L 11,19L 11,14.9013C 6,14.9013 2.5,16.5 -1.11262e-006,20C 0.999999,15 4,10 11,9M 17,8L 17,5L 24,12L 17,19L 17,16L 21,12"/>
</svg>
