<?xml version="1.0" encoding="utf-8"?>
<!DOCTYPE svg PUBLIC "-//W3C//DTD SVG 1.1//EN" "http://www.w3.org/Graphics/SVG/1.1/DTD/svg11.dtd">
<svg xmlns="http://www.w3.org/2000/svg" xmlns:xlink="http://www.w3.org/1999/xlink" version="1.1" baseProfile="full" width="24" height="24" viewBox="0 0 24.00 24.00" enable-background="new 0 0 24.00 24.00" xml:space="preserve">
	<path fill="#000000" fill-opacity="1" stroke-width="0.2" stroke-linejoin="miter" d="M 4.00002,2.00001L 4.00002,8L 2.00002,8L 2.00002,2.00001L 4.00002,2.00001 Z M 2.00001,22L 2.00001,16L 4.00001,16L 4.00001,22L 2.00001,22 Z M 5.00001,12C 5.00001,13.1046 4.10458,14 3.00001,14C 1.89545,14 1.00002,13.1046 1.00002,12C 1.00002,10.8954 1.89545,10 3.00001,10C 4.10458,10 5.00001,10.8954 5.00001,12 Z M 16,4.00002C 20.4183,4.00002 24,7.58174 24,12C 24,16.4183 20.4183,20 16,20C 12.3999,20 9.35523,17.622 8.35105,14.3511L 6.00002,12L 8.35105,9.64898C 9.35523,6.37803 12.3999,4.00002 16,4.00002 Z M 16,6C 12.6863,6 10,8.6863 10,12C 10,15.3137 12.6863,18 16,18C 19.3137,18 22,15.3137 22,12C 22,8.6863 19.3137,6 16,6 Z M 15,13L 15,8L 16.5,8L 16.5,12.2L 19.476,13.9856L 18.6777,15.2632L 15,13 Z "/>
</svg>
