<?xml version="1.0" encoding="utf-8"?>
<!DOCTYPE svg PUBLIC "-//W3C//DTD SVG 1.1//EN" "http://www.w3.org/Graphics/SVG/1.1/DTD/svg11.dtd">
<svg xmlns="http://www.w3.org/2000/svg" xmlns:xlink="http://www.w3.org/1999/xlink" version="1.1" baseProfile="full" width="24" height="24" viewBox="0 0 24.00 24.00" enable-background="new 0 0 24.00 24.00" xml:space="preserve">
	<path fill="#000000" fill-opacity="1" stroke-width="0.2" stroke-linejoin="round" d="M 22.14,15.3387L 22.12,15.3493C 22.3493,15.6307 22.552,15.9373 22.6973,16.2707L 22.792,16.4587C 23.5,18.1507 23,20.0987 21.688,21.3173C 20.5,22.412 18.8387,22.6973 17.3027,22.5C 15.8387,22.3173 14.5,21.4013 13.7293,20.1307C 13.5,19.74 13.3027,19.3027 13.1973,18.8493C 13.068,18.5 13.0307,18.12 13,17.7507C 12.912,16.1507 13.552,14.448 14.76,13.448C 14.208,14.6613 14.3387,16.172 15.1507,17.2187L 15.26,17.3493C 15.4013,17.4693 15.568,17.5 15.7293,17.4373C 15.88,17.38 16,17.2293 16,17.068L 15.932,16.828C 15.052,14.5 15.792,11.8027 17.6613,10.2707C 18.172,9.84933 18.8027,9.46933 19.4587,9.30267C 18.7813,10.6613 19,12.4373 20.088,13.5C 20.552,14 21.1093,14.292 21.5787,14.7293L 22.14,15.3387 Z M 19.86,20L 19.8493,19.9693C 20.3027,19.5787 20.552,18.912 20.5307,18.312L 20.5,18C 20.3027,17 19.432,16.6613 18.8693,15.932L 18.4373,15.1507C 18.2187,15.6507 18.1973,16.12 18.292,16.6613C 18.3907,17.2293 18.6093,17.7187 18.5,18.312C 18.3387,18.9587 17.828,19.6093 16.9373,19.8173C 17.4373,20.312 18.2507,20.6973 19.0627,20.4213C 19.3173,20.3493 19.6507,20.1613 19.86,20 Z M 3,16L 11.0619,16L 11,17C 11,18.4062 11.3628,19.7277 12,20.876L 12,21L 3,21L 3,16 Z M 2,10L 7.99999,10L 7.99999,15L 2,15L 2,10 Z M 8.99999,10L 15,10L 15,10.0703C 13.1665,11.1309 11.793,12.8983 11.252,15L 8.99999,15L 8.99999,10 Z M 3,4L 11,4L 11,9.00001L 3,9.00001L 3,4 Z M 12,4L 21,4.00001L 21,9.00001L 12,9.00001L 12,4 Z "/>
</svg>
