<?xml version="1.0" encoding="utf-8"?>
<!DOCTYPE svg PUBLIC "-//W3C//DTD SVG 1.1//EN" "http://www.w3.org/Graphics/SVG/1.1/DTD/svg11.dtd">
<svg xmlns="http://www.w3.org/2000/svg" xmlns:xlink="http://www.w3.org/1999/xlink" version="1.1" baseProfile="full" width="24" height="24" viewBox="0 0 24.00 24.00" enable-background="new 0 0 24.00 24.00" xml:space="preserve">
	<path fill="#000000" fill-opacity="1" stroke-linejoin="round" d="M 12,2C 14.4435,2 16.4776,3.7528 16.9136,6.06965L 17.75,6C 20.5114,6 22.75,8.23857 22.75,11C 22.75,12.8893 21.7022,14.5338 20.156,15.3841C 20.535,16.0885 20.75,16.8941 20.75,17.75C 20.75,20.5114 18.5114,22.75 15.75,22.75C 14.2566,22.75 12.9162,22.0953 12,21.0573C 11.0838,22.0953 9.74337,22.75 8.25,22.75C 5.48858,22.75 3.25,20.5114 3.25,17.75C 3.25,16.8941 3.46504,16.0885 3.84404,15.3841C 2.29783,14.5338 1.25,12.8893 1.25,11C 1.25,8.23857 3.48857,6 6.25,6L 7.0864,6.06965C 7.52238,3.7528 9.55649,2 12,2 Z M 6.75,20.25L 13.6562,17L 17,17C 17.5523,17 18,16.5523 18,16L 18,9.00001C 18,8.44773 17.5523,8.00001 17,8.00001L 6.99999,8.00001C 6.44771,8.00001 5.99999,8.44773 5.99999,9.00001L 5.99999,16C 5.99999,16.5523 6.44771,17 6.99999,17L 7.76562,17L 6.75,20.25 Z "/>
</svg>
